<?xml version="1.0" encoding="iso-8859-1"?>
<!-- Generator: Adobe Illustrator 19.0.0, SVG Export Plug-In . SVG Version: 6.00 Build 0)  -->
<svg version="1.1" id="Layer_1" xmlns="http://www.w3.org/2000/svg" xmlns:xlink="http://www.w3.org/1999/xlink" x="0px" y="0px"
	 viewBox="0 0 480 480" style="enable-background:new 0 0 480 480;" xml:space="preserve">
<g>
	<g>
		<g>
			<path d="M370.32,24.092c4.816,1.296,9.6,2.904,14.224,4.784c0.984,0.4,2.008,0.592,3.008,0.592c3.16,0,6.152-1.888,7.424-4.992
				c1.664-4.096-0.304-8.76-4.4-10.424c-5.232-2.128-10.648-3.952-16.096-5.416c-4.272-1.144-8.656,1.384-9.808,5.648
				C363.528,18.556,366.056,22.94,370.32,24.092z"/>
			<path d="M455.816,201.532c-3.824-2.216-8.72-0.904-10.928,2.92c-2.48,4.296-5.272,8.512-8.296,12.528
				c-2.656,3.528-1.944,8.544,1.584,11.2c1.44,1.088,3.128,1.608,4.8,1.608c2.424,0,4.824-1.104,6.4-3.192
				c3.408-4.528,6.56-9.288,9.36-14.136C460.952,208.636,459.64,203.74,455.816,201.532z"/>
			<path d="M410.712,43.46c31.688,23.128,50.608,60.328,50.608,99.496c0,11.536-1.584,22.944-4.728,33.92
				c-1.208,4.24,1.248,8.672,5.496,9.888c0.728,0.208,1.472,0.312,2.2,0.312c3.48,0,6.688-2.288,7.688-5.8
				c3.544-12.408,5.344-25.304,5.344-38.32c-0.008-44.264-21.376-86.288-57.176-112.416c-3.56-2.608-8.568-1.832-11.176,1.744
				C406.36,35.852,407.144,40.852,410.712,43.46z"/>
			<path d="M213.104,103.004c0.952,0.368,1.928,0.544,2.896,0.544c3.2,0,6.232-1.944,7.456-5.112
				c18.24-46.992,64.368-78.56,114.784-78.56l2.4,0.024c4.632,0.144,8.072-3.424,8.152-7.848c0.08-4.424-3.432-8.072-7.848-8.152
				l-2.704-0.024c-56.968,0-109.088,35.672-129.696,88.776C206.944,96.772,208.984,101.404,213.104,103.004z"/>
			<path d="M122,412.7c-3.832-2.224-8.72-0.896-10.928,2.928l-28,48.496c-2.208,3.824-0.904,8.72,2.928,10.928
				c1.264,0.728,2.64,1.072,3.992,1.072c2.768,0,5.456-1.432,6.936-4l28-48.496C127.136,419.804,125.832,414.908,122,412.7z"/>
			<path d="M170,412.7c-3.84-2.224-8.72-0.896-10.928,2.928l-28,48.496c-2.208,3.824-0.904,8.72,2.928,10.928
				c1.264,0.728,2.64,1.072,3.992,1.072c2.768,0,5.456-1.432,6.936-4l28-48.496C175.136,419.804,173.832,414.908,170,412.7z"/>
			<path d="M218,412.7c-3.84-2.224-8.72-0.896-10.928,2.928l-28,48.496c-2.208,3.824-0.904,8.72,2.928,10.928
				c1.264,0.728,2.64,1.072,3.992,1.072c2.768,0,5.456-1.432,6.936-4l28-48.496C223.136,419.804,221.832,414.908,218,412.7z"/>
			<path d="M266,412.7c-3.832-2.224-8.72-0.896-10.928,2.928l-28,48.496c-2.208,3.824-0.904,8.72,2.928,10.928
				c1.264,0.728,2.64,1.072,3.992,1.072c2.768,0,5.456-1.432,6.936-4l28-48.496C271.136,419.804,269.832,414.908,266,412.7z"/>
			<path d="M314,412.7c-3.84-2.224-8.72-0.896-10.928,2.928l-28,48.496c-2.208,3.824-0.904,8.72,2.928,10.928
				c1.264,0.728,2.64,1.072,3.992,1.072c2.768,0,5.456-1.432,6.936-4l28-48.496C319.136,419.804,317.832,414.908,314,412.7z"/>
			<path d="M362,412.7c-3.84-2.224-8.72-0.896-10.928,2.928l-28,48.496c-2.208,3.824-0.904,8.72,2.928,10.928
				c1.264,0.728,2.64,1.072,3.992,1.072c2.768,0,5.456-1.432,6.936-4l28-48.496C367.136,419.804,365.832,414.908,362,412.7z"/>
			<path d="M410,412.7c-3.832-2.224-8.712-0.896-10.928,2.928l-28,48.496c-2.208,3.824-0.904,8.72,2.928,10.928
				c1.264,0.728,2.64,1.072,3.992,1.072c2.768,0,5.456-1.432,6.936-4l28-48.496C415.136,419.804,413.832,414.908,410,412.7z"/>
			<path d="M398.128,391.876c0.016,0,0.032,0,0.04,0c4.4,0,7.976-3.56,7.992-7.96c0.024-4.424-3.544-8.024-7.96-8.048l-16.072,0.016
				c-0.008,0-0.024,0-0.032,0c-4.4,0-7.984,3.488-8,7.896c-0.016,4.416,3.544,7.952,7.968,7.968L398.128,391.876z"/>
			<path d="M148,129.116c27.52,1.688,54,12.776,74.56,31.232c1.52,1.376,3.432,2.048,5.336,2.048c2.192,0,4.376-0.896,5.952-2.656
				c2.952-3.288,2.68-8.344-0.608-11.296c-23.232-20.856-53.168-33.392-83.664-35.232c-6.624-0.912-12.208-1.336-17.576-1.336
				c-20.064,0-39.344,4.52-57.296,13.44c-3.96,1.96-5.576,6.76-3.608,10.72c1.952,3.952,6.736,5.592,10.72,3.608
				c15.72-7.808,32.608-11.768,50.184-11.768C136.624,127.876,141.52,128.252,148,129.116z"/>
			<path d="M126.32,373.724c-5.016-0.664-9.984-1.616-14.768-2.84c-4.272-1.136-8.632,1.488-9.728,5.768
				c-1.096,4.272,1.488,8.632,5.768,9.728c5.392,1.376,10.992,2.456,16.632,3.2c0.36,0.048,0.712,0.072,1.064,0.072
				c3.952,0,7.384-2.928,7.912-6.944C133.784,378.324,130.696,374.3,126.32,373.724z"/>
			<path d="M420,263.86h-32.344c0.208-2.08,0.328-3.856,0.336-6.52c0-39.84-23.128-75.024-58.936-89.64
				c-4.104-1.688-8.768,0.296-10.432,4.384c-1.672,4.096,0.296,8.768,4.384,10.432c29.76,12.144,48.984,41.52,48.984,75.072
				c-0.008,2.608-0.2,4.184-0.488,6.792c-0.192,1.72-0.424,3.832-0.696,6.768c-0.2,2.24,0.552,4.456,2.064,6.12
				c1.512,1.664,3.656,2.608,5.904,2.608H420c24.264,0,44,21.528,44,48c0,17.6-8.824,33.776-23.024,42.2
				c-3.8,2.256-5.056,7.16-2.8,10.96c1.496,2.52,4.16,3.92,6.888,3.92c1.384,0,2.792-0.36,4.072-1.136
				C468.176,372.524,480,351.084,480,327.86C480,292.572,453.088,263.86,420,263.86z"/>
			<path d="M26.088,180.74c1.384,0.944,2.952,1.392,4.504,1.392c2.56,0,5.072-1.224,6.624-3.48c2.792-4.096,5.888-8.072,9.2-11.808
				c2.936-3.304,2.632-8.368-0.68-11.296c-3.312-2.928-8.368-2.632-11.296,0.68c-3.76,4.232-7.272,8.744-10.448,13.392
				C21.504,173.268,22.44,178.244,26.088,180.74z"/>
			<path d="M277.816,161.436c-5.784,0.792-11.496,2.112-16.984,3.92c-4.2,1.376-6.48,5.904-5.096,10.096
				c1.104,3.368,4.24,5.504,7.6,5.504c0.832,0,1.672-0.128,2.488-0.408c4.576-1.504,9.336-2.6,14.16-3.264
				c4.376-0.6,7.44-4.632,6.84-9.008C286.224,163.9,282.152,160.796,277.816,161.436z"/>
			<path d="M71.168,351.836c-6.464-4.744-12.496-10.208-18.312-16.632C29.088,312.228,16,281.164,16,247.748
				c0-9.504,1.08-18.968,3.216-28.12c1-4.304-1.68-8.608-5.984-9.608c-4.288-1.008-8.608,1.672-9.608,5.984
				C1.216,226.34,0,237.02,0,247.748c0,37.792,14.824,72.944,41.352,98.56c6.168,6.84,13.008,13.04,20.344,18.424
				c1.424,1.048,3.088,1.552,4.728,1.552c2.456,0,4.888-1.128,6.456-3.264C75.496,359.46,74.728,354.452,71.168,351.836z"/>
			<path d="M173.504,375.884c-4.4,0-7.976,3.048-8,7.456c-0.024,4.416,3.544,7.512,7.96,7.536l160.448,1c0.016,0,0.032,0,0.04,0
				c4.4,0,7.976-3.464,8-7.864c0.024-4.416-3.544-7.92-7.96-7.944l-160.448-0.184C173.528,375.884,173.512,375.884,173.504,375.884z
				"/>
		</g>
	</g>
</g>
<g>
</g>
<g>
</g>
<g>
</g>
<g>
</g>
<g>
</g>
<g>
</g>
<g>
</g>
<g>
</g>
<g>
</g>
<g>
</g>
<g>
</g>
<g>
</g>
<g>
</g>
<g>
</g>
<g>
</g>
</svg>
